<svg xmlns="http://www.w3.org/2000/svg" width="75.157" height="75.14" viewBox="0 0 75.157 75.14">
  <g id="volleyball" transform="translate(-12.422 -12.422)">
    <path id="Path_1" data-name="Path 1" d="M82.484,31.125c0-.016-.016-.031-.016-.047a37.552,37.552,0,0,0-64.812-.187,1.047,1.047,0,0,0-.172.281c-.016.016-.031.031-.031.047a.118.118,0,0,0-.031.063V31.3a37.469,37.469,0,0,0-5,18.7,35.142,35.142,0,0,0,.3,4.656A37.764,37.764,0,0,0,27.344,79.968,37.577,37.577,0,0,0,87.282,54.64a35.078,35.078,0,0,0,.3-4.641A37.465,37.465,0,0,0,82.61,31.327c-.016-.062-.094-.125-.125-.2Zm-4.141-.7c-.7.047-1.406.125-2.109.219a4.283,4.283,0,0,0-.437.078c-.594.094-1.2.188-1.781.3-.328.063-.641.141-.969.219-.406.094-.812.188-1.2.281-.375.094-.75.2-1.125.313-.328.094-.656.2-1,.3-.406.125-.828.266-1.234.422-.266.094-.516.188-.781.3-.469.172-.922.359-1.375.563-.141.063-.266.125-.406.188-1.172.531-2.328,1.094-3.453,1.734a.28.28,0,0,0-.109.078.015.015,0,0,0-.016.016c-.016,0-.016,0-.031.016-.687.406-1.375.828-2.031,1.281-.2.125-.375.281-.578.406-.453.328-.922.641-1.375.984-.234.172-.453.375-.687.563-.391.313-.781.625-1.156.953-.234.2-.469.438-.7.656-.344.328-.7.641-1.031.969-.234.234-.453.484-.687.719-.312.328-.641.672-.937,1.016-.234.25-.437.516-.656.781-.3.344-.578.688-.859,1.047-.219.281-.422.563-.625.844-.266.359-.531.719-.781,1.094-.2.3-.391.594-.578.891-.172.266-.359.531-.516.8-.281,0-.562-.016-.844-.031-.266-.016-.531-.016-.8-.047-.484-.031-.953-.078-1.437-.141-.219-.031-.437-.047-.656-.078a32.95,32.95,0,0,1-4.109-.812c-.2-.062-.422-.125-.625-.187-.453-.125-.922-.266-1.375-.406-.25-.078-.5-.172-.75-.266-.406-.141-.812-.3-1.219-.453-.266-.109-.516-.219-.766-.328-.391-.172-.766-.344-1.141-.516-.25-.125-.516-.25-.766-.375-.125-.062-.25-.141-.375-.2l.219-.406a46.605,46.605,0,0,1,3.078-5.359l.813-1.172A51.808,51.808,0,0,1,51.031,25.015a40.066,40.066,0,0,1,3.938-2.547c.7-.406,1.422-.812,2.156-1.187.2-.109.406-.2.609-.3.531-.266,1.063-.531,1.609-.781.266-.125.547-.234.813-.359.5-.219.984-.437,1.484-.641.313-.125.641-.25.953-.359l1.125-.422a34.356,34.356,0,0,1,14.625,12ZM36.859,18.141A34.644,34.644,0,0,1,59.235,16.8c-.156.063-.3.141-.437.2-.641.281-1.281.578-1.906.891-.281.141-.578.281-.859.422-.891.453-1.781.938-2.625,1.438a44.337,44.337,0,0,0-4.187,2.719A54.773,54.773,0,0,0,35.813,35.844l-.859,1.25a49.849,49.849,0,0,0-3.234,5.641l-.172.313c-.109-.078-.234-.141-.344-.219-.25-.156-.484-.312-.719-.484-.344-.234-.7-.484-1.031-.734-.234-.172-.469-.344-.7-.531-.344-.266-.672-.531-1-.812-.219-.187-.437-.359-.641-.547-.344-.312-.687-.625-1.016-.953-.172-.172-.359-.328-.531-.5-.5-.5-.984-1-1.437-1.531-.031-.031-.062-.078-.094-.109-.437-.5-.859-1-1.25-1.531l-.422-.562c-.281-.375-.562-.766-.828-1.156-.156-.219-.3-.453-.453-.687-.141-.234-.281-.453-.422-.687a34.592,34.592,0,0,1,16.2-13.859ZM18.921,35.125c.406.594.828,1.172,1.266,1.75.047.063.094.109.125.156.438.547.875,1.094,1.344,1.625l.516.563c.344.391.7.766,1.063,1.141.2.2.406.406.625.609.344.344.7.672,1.078,1,.219.2.438.391.672.594.375.313.75.625,1.141.938.219.172.453.359.672.531.422.313.859.625,1.3.922.2.141.391.281.609.422.641.422,1.313.828,1.984,1.219h.016c.047.031.094.047.141.078.688.391,1.391.766,2.094,1.109.219.109.453.2.672.313.5.234.984.469,1.484.672.281.109.547.2.828.313.469.172.922.359,1.391.516.3.094.594.188.891.266.469.141.922.3,1.391.422.3.078.609.141.906.219.469.109.938.234,1.422.328.313.063.625.109.922.156.469.078.953.172,1.422.234.328.047.641.078.969.109.469.047.938.109,1.406.141.344.031.688.031,1.031.047.328.016.641.047.969.047.125.234.266.469.375.719.125.234.25.469.359.719.2.438.406.875.594,1.313.078.188.172.391.25.578a32.676,32.676,0,0,1,1.375,4.063c.016.063.031.125.047.2.172.641.313,1.266.453,1.922a2.212,2.212,0,0,0,.063.313c.125.609.219,1.234.313,1.859l.047.328c.078.609.141,1.234.188,1.844.016.125.016.25.031.391.016.172.016.359.016.547a2.118,2.118,0,0,0-.312.031,50.578,50.578,0,0,1-6.156,0c-.531-.031-1.031-.062-1.562-.125a51.116,51.116,0,0,1-17.3-4.625A39.368,39.368,0,0,1,23.874,59.5c-.734-.422-1.453-.859-2.172-1.312-.187-.125-.359-.25-.547-.375-.531-.344-1.047-.7-1.578-1.062-.234-.172-.469-.359-.7-.531-.453-.344-.906-.672-1.359-1.031-.266-.2-.531-.437-.781-.641-.328-.266-.656-.547-.984-.828a32.757,32.757,0,0,1-.2-3.719,34.474,34.474,0,0,1,3.375-14.875ZM16.578,58.391c.141.109.3.2.453.313q.891.656,1.781,1.266c.281.188.547.391.828.563.875.578,1.766,1.125,2.656,1.625a44.376,44.376,0,0,0,4.438,2.266A53.824,53.824,0,0,0,45,69.313c.563.063,1.125.094,1.7.125,1.063.063,2.172.094,3.266.094s2.2-.031,3.25-.094a.433.433,0,0,0,.141-.016,3.669,3.669,0,0,1-.016.406c-.016.281-.047.563-.062.844-.031.438-.078.875-.125,1.3-.031.281-.062.563-.109.844-.062.438-.141.875-.219,1.313-.047.266-.094.531-.156.8-.094.469-.219.938-.328,1.406-.062.219-.109.453-.172.672-.187.656-.375,1.313-.594,1.953a.141.141,0,0,0-.016.078c-.234.672-.484,1.328-.75,1.984-.094.2-.187.422-.281.625-.187.438-.391.875-.594,1.313-.125.25-.25.484-.375.734-.125.234-.25.484-.391.719a33.971,33.971,0,0,1-19.953-6.953A34.429,34.429,0,0,1,16.578,58.391Zm37.078,24a1.187,1.187,0,0,0,.063-.172c.266-.656.516-1.312.75-1.984.078-.25.156-.5.234-.734.156-.484.313-.969.453-1.469.078-.281.156-.578.219-.859q.188-.7.328-1.406l.188-.891c.094-.469.172-.953.234-1.422.047-.3.094-.578.125-.875.063-.516.109-1.047.156-1.562.016-.25.047-.5.063-.75.047-.781.078-1.547.078-2.328v-.156q0-1.2-.094-2.391c-.016-.281-.062-.547-.078-.828-.047-.516-.094-1.031-.156-1.547-.047-.328-.109-.656-.156-.984-.078-.453-.141-.906-.234-1.359-.062-.344-.156-.687-.234-1.031-.094-.422-.187-.859-.3-1.281-.094-.344-.2-.687-.3-1.031-.125-.422-.234-.828-.375-1.234-.109-.344-.25-.687-.375-1.031-.141-.406-.3-.812-.453-1.2-.141-.344-.3-.672-.437-1-.172-.391-.344-.781-.531-1.172-.156-.328-.328-.656-.5-.984-.141-.266-.266-.547-.406-.812.141-.234.281-.453.422-.687s.3-.453.453-.687l.8-1.125.422-.562c.375-.484.75-.937,1.141-1.406.063-.062.109-.141.172-.2.453-.516.922-1.031,1.406-1.516.156-.156.328-.312.484-.469.344-.328.672-.656,1.031-.969.2-.187.422-.359.625-.547.313-.266.641-.547.969-.8.234-.187.469-.359.7-.547.328-.234.641-.484.984-.7.25-.172.5-.344.75-.5.141-.094.266-.172.406-.266.406.625.781,1.234,1.141,1.844.219.359.453.719.656,1.078.578,1,1.109,2.016,1.609,3.031l.484,1.016A51.63,51.63,0,0,1,71.2,63.141a43.778,43.778,0,0,1,.234,4.8c0,.844-.016,1.672-.062,2.516-.016.266-.047.547-.062.813-.031.563-.078,1.141-.125,1.7-.031.328-.078.656-.109.984-.062.516-.109,1.016-.187,1.531-.047.359-.109.7-.172,1.063-.062.391-.125.766-.2,1.141A34.162,34.162,0,0,1,52.781,84.36c.313-.672.594-1.312.875-1.969ZM84.187,54.25a34.546,34.546,0,0,1-10.031,20.3c.016-.172.031-.328.047-.5q.117-1.055.188-2.109c.031-.328.063-.656.078-.984.063-1.016.094-2.047.094-3.062a45.042,45.042,0,0,0-.25-5.109,54.575,54.575,0,0,0-4.875-18.234l-.562-1.156c-.469-.953-.969-1.906-1.516-2.859-.047-.078-.094-.172-.141-.266-.516-.906-1.094-1.828-1.687-2.75-.047-.078-.078-.141-.125-.219.813-.422,1.641-.828,2.5-1.187a1.085,1.085,0,0,1,.2-.078c.578-.234,1.172-.469,1.766-.672.125-.047.234-.078.359-.125.578-.187,1.156-.375,1.734-.531.109-.031.234-.062.344-.094a32,32,0,0,1,4.219-.844c.188-.031.359-.047.547-.062.516-.062,1.031-.125,1.547-.156l.766-.047c.3-.016.578-.031.875-.031A34.538,34.538,0,0,1,84.484,50a38.047,38.047,0,0,1-.3,4.25Z" fill="#fff"/>
  </g>
</svg>
